<?xml version="1.0" encoding="iso-8859-1"?>
<!-- Uploaded to: SVG Repo, www.svgrepo.com, Generator: SVG Repo Mixer Tools -->
<svg height="800px" width="800px" version="1.1" id="Layer_1" xmlns="http://www.w3.org/2000/svg" xmlns:xlink="http://www.w3.org/1999/xlink" 
	 viewBox="0 0 512 512" xml:space="preserve">
<path style="fill:#2A5637;" d="M448.174,293.319c-9.097,0-16.472-7.375-16.472-16.472v-53.809c0-9.097,7.375-16.472,16.472-16.472
	s16.472,7.375,16.472,16.472v53.809C464.647,285.944,457.273,293.319,448.174,293.319z"/>
<path style="fill:#4E7F4B;" d="M448.174,293.319c-9.097,0-16.472-7.375-16.472-16.472v-53.809c0-9.097,7.375-16.472,16.472-16.472
	V293.319z"/>
<path style="fill:#E56C1E;" d="M495.527,341.511c-4.216,0-8.432-1.608-11.647-4.825l-18.722-18.722
	c-24.022-24.021-60.018-31.63-91.703-19.385c-0.363,0.141-0.732,0.268-1.104,0.382l-108.197,33.21
	c-8.696,2.667-17.911-2.217-20.58-10.913c-2.67-8.696,2.217-17.911,10.913-20.58l107.659-33.044
	c43.703-16.634,93.215-6.053,126.306,27.038l18.722,18.722c6.433,6.433,6.433,16.862,0,23.295
	C503.959,339.904,499.743,341.511,495.527,341.511z"/>
<path style="fill:#F2BA57;" d="M447.627,304.466c-22.211-12.916-49.499-15.42-74.171-5.886c-0.363,0.141-0.732,0.268-1.104,0.382
	l-108.197,33.21c-8.696,2.667-17.911-2.217-20.58-10.913c-2.67-8.696,2.217-17.911,10.913-20.58l107.659-33.044
	c28.253-10.754,58.934-10.133,86.037,0.591l-0.009,36.565L447.627,304.466z"/>
<path style="fill:#007871;" d="M465.745,231.823h-36.239c-9.097,0-16.472-7.375-16.472-16.472s7.375-16.472,16.472-16.472h36.239
	c9.097,0,16.472,7.375,16.472,16.472S474.843,231.823,465.745,231.823z"/>
<path style="fill:#489B6D;" d="M448.174,231.823h-18.668c-9.097,0-16.472-7.375-16.472-16.472s7.375-16.472,16.472-16.472h18.668
	V231.823z"/>
<path style="fill:#91C0F1;" d="M495.395,507.457c-9.097,0-16.472-7.375-16.472-16.472v-17.57c0-9.097,7.375-16.472,16.472-16.472
	c9.097,0,16.472,7.375,16.472,16.472v17.57C511.867,500.082,504.493,507.457,495.395,507.457z"/>
<path style="fill:#0EABD9;" d="M495.395,443.765c-9.097,0-16.472-7.375-16.472-16.472v-46.122c0-9.097,7.375-16.472,16.472-16.472
	c9.097,0,16.472,7.375,16.472,16.472v46.122C511.867,436.39,504.493,443.765,495.395,443.765z"/>
<path style="fill:#489B6D;" d="M351.222,280.06c-25.427-19.622-57.214-32.798-91.925-38.106c-35.367-5.405-73.006-2.45-108.849,8.55
	c-35.841,11.001-68.657,29.67-94.901,53.988c-25.757,23.866-44.679,52.607-54.719,83.115c-2.183,6.634,0.054,13.923,5.583,18.191
	c25.427,19.622,57.215,32.797,91.925,38.104c11.506,1.759,23.247,2.632,35.093,2.632c24.569,0,49.573-3.76,73.755-11.182
	c35.841-11.001,68.658-29.67,94.903-53.988c25.757-23.866,44.679-52.606,54.719-83.115
	C358.989,291.617,356.751,284.327,351.222,280.06z"/>
<path style="fill:#A2CE86;" d="M352.344,167.207c-11.793-33.779-32.039-65.647-58.55-92.157s-58.378-46.757-92.157-58.55
	c-33.153-11.574-67.411-14.826-99.064-9.403c-6.884,1.179-12.276,6.571-13.454,13.454c-5.423,31.657-2.171,65.913,9.403,99.065
	c11.793,33.78,32.039,65.647,58.55,92.157c26.51,26.511,58.377,46.757,92.157,58.55c22.725,7.934,45.964,11.957,68.534,11.957
	c10.355,0,20.575-0.848,30.532-2.553c6.884-1.179,12.276-6.571,13.454-13.454C367.169,234.615,363.917,200.359,352.344,167.207z"/>
<path style="fill:#489B6D;" d="M352.344,167.207c-11.793-33.779-32.039-65.647-58.55-92.157s-58.378-46.757-92.157-58.55
	c-33.153-11.574-67.411-14.826-99.064-9.403c-3.546,0.607-6.69,2.338-9.072,4.809c45.595,45.214,162.486,161.197,264.167,262.684
	c2.079-2.276,3.535-5.134,4.08-8.318C367.169,234.615,363.917,200.359,352.344,167.207z"/>
<path style="fill:#A2CE86;" d="M1.035,398.477c1.049,2.832,2.869,5.387,5.374,7.321c25.427,19.622,57.215,32.797,91.925,38.104
	c11.506,1.759,23.247,2.632,35.093,2.632c24.569,0,49.573-3.76,73.755-11.182c35.841-11.001,68.658-29.67,94.903-53.988
	c25.757-23.866,44.679-52.606,54.719-83.115c1.028-3.121,1.064-6.385,0.251-9.413L1.035,398.477z"/>
</svg>